<svg width="600" height="600" viewBox="0 0 600 600" fill="none" xmlns="http://www.w3.org/2000/svg">
<path d="M0 5.99999C0 2.68629 2.68629 0 6 0H594C597.314 0 600 2.68629 600 6V594C600 597.314 597.314 600 594 600H5.99999C2.68629 600 0 597.314 0 594V5.99999Z" fill="#DC0000"/>
<path d="M0 176.374H600V362.637H0V176.374Z" fill="white"/>
<path d="M0 6C0 2.68629 2.68629 0 6 0H594C597.314 0 600 2.68629 600 6V176.374H0V6Z" fill="#646835"/>
<path d="M0 6C0 2.68629 2.68629 0 6 0H594C597.314 0 600 2.68629 600 6V176.374H0V6Z" fill="#646835"/>
<path d="M0 502.747H600V594C600 597.314 597.314 600 594 600H5.99999C2.68629 600 0 597.314 0 594V502.747Z" fill="#6C8491"/>
</svg>
