<svg width="600" height="600" viewBox="0 0 600 600" fill="none" xmlns="http://www.w3.org/2000/svg">
<path d="M0 6C0 2.68629 2.68629 0 6 0H594C597.314 0 600 2.68629 600 6V592.998C600 596.311 597.314 598.998 594 598.998H5.99999C2.68629 598.998 0 596.311 0 592.998V6Z" fill="#DC0000"/>
<path d="M0 6C0 2.68629 2.68629 0 6 0H594C597.314 0 600 2.68629 600 6V365.608H0V6Z" fill="black"/>
<path d="M0 495.105H600V594C600 597.314 597.314 600 594 600H5.99999C2.68629 600 0 597.314 0 594V495.105Z" fill="#743200"/>
</svg>
