<svg width="600" height="622" viewBox="0 0 600 622" fill="none" xmlns="http://www.w3.org/2000/svg">
<path d="M0 5.99999C0 2.68628 2.68629 0 6 0H594C597.314 0 600 2.68629 600 6V615.726C600 619.04 597.314 621.726 594 621.726H5.99999C2.68629 621.726 0 619.04 0 615.726V5.99999Z" fill="#F8BBE4"/>
<path d="M0 337H600V466C600 469.314 597.314 472 594 472H5.99999C2.68629 472 0 469.314 0 466V337Z" fill="black"/>
<path d="M0 6.00001C0 2.6863 2.68629 0 6 0H594C597.314 0 600 2.68629 600 6V368H0V6.00001Z" fill="#CF0410"/>
<rect y="553" width="600" height="69" fill="#1A0C62"/>
</svg>
