<svg width="600" height="600" viewBox="0 0 600 600" fill="none" xmlns="http://www.w3.org/2000/svg">
<path d="M0 6C0 2.68629 2.68629 0 6 0H594C597.314 0 600 2.68629 600 6V593.418C600 596.732 597.314 599.418 594 599.418H5.99999C2.68629 599.418 0 596.732 0 593.418V6Z" fill="#0049CA"/>
<path d="M0 249.707H600V357.473C600 360.787 597.314 363.473 594 363.473H5.99999C2.68629 363.473 0 360.786 0 357.473V249.707Z" fill="#FC7500"/>
<path d="M0 208.465C0 205.151 2.68629 202.465 6 202.465H594C597.314 202.465 600 205.151 600 208.465V363.075H0V208.465Z" fill="#1A0C62"/>
<path d="M0 488.808H600V600H0V488.808Z" fill="#569D01"/>
<path d="M0 365.073H600V507.733H0V365.073Z" fill="#FC7500"/>
</svg>
