<svg width="601" height="600" viewBox="0 0 601 600" fill="none" xmlns="http://www.w3.org/2000/svg">
<path d="M0 6C0 2.68629 2.68629 0 6 0H594C597.314 0 600 2.68629 600 6V593.418C600 596.732 597.314 599.418 594 599.418H5.99999C2.68629 599.418 0 596.732 0 593.418V6Z" fill="#DC0000"/>
<path d="M1 260C1 256.686 3.68629 254 7 254H595C598.314 254 601 256.686 601 260V425.61H1V260Z" fill="black"/>
<path d="M0 488.808H600V600H0V488.808Z" fill="#743200"/>
<path d="M0 425.073H600V514.733H0V425.073Z" fill="#1A0C62"/>
</svg>
