<svg width="600" height="600" viewBox="0 0 600 600" fill="none" xmlns="http://www.w3.org/2000/svg">
<path d="M0 6C0 2.68629 2.68629 0 6 0H594C597.314 0 600 2.68629 600 6V593.418C600 596.732 597.314 599.418 594 599.418H5.99999C2.68629 599.418 0 596.732 0 593.418V6Z" fill="#5D5921"/>
<path d="M0 249.707H600V357.473C600 360.787 597.314 363.473 594 363.473H5.99999C2.68629 363.473 0 360.787 0 357.473V249.707Z" fill="#FC7500"/>
<path d="M0 194.465C0 191.151 2.68629 188.465 6 188.465H594C597.314 188.465 600 191.151 600 194.465V341.075H0V194.465Z" fill="#DC0000"/>
</svg>
