<svg width="600" height="600" viewBox="0 0 600 600" fill="none" xmlns="http://www.w3.org/2000/svg">
<path d="M0 6C0 2.68629 2.68629 0 6 0H594C597.314 0 600 2.68629 600 6V592.998C600 596.311 597.314 598.998 594 598.998H5.99999C2.68629 598.998 0 596.311 0 592.998V6Z" fill="#FFFF01"/>
<path d="M0 6C0 2.68629 2.68629 0 6 0H594C597.314 0 600 2.68629 600 6V243.61H0V6Z" fill="black"/>
<path d="M0 465.106H600V593.996C600 597.309 597.314 599.996 594 599.996H5.99999C2.68629 599.996 0 597.309 0 593.996V465.106Z" fill="#1A055A"/>
</svg>
