<svg width="600" height="623" viewBox="0 0 600 623" fill="none" xmlns="http://www.w3.org/2000/svg">
<path d="M0 5.99999C0 2.68628 2.68629 0 6 0H594C597.314 0 600 2.68629 600 6V615.726C600 619.04 597.314 621.726 594 621.726H5.99999C2.68629 621.726 0 619.04 0 615.726V5.99999Z" fill="#5E6A6A"/>
<path d="M0 186H600V315C600 318.314 597.314 321 594 321H5.99999C2.68629 321 0 318.314 0 315V186Z" fill="#0044C6"/>
<path d="M0 6C0 2.68629 2.68629 0 6 0H594C597.314 0 600 2.68629 600 6V187H0V6Z" fill="black"/>
<rect y="545" width="600" height="77.33" fill="#1A055A"/>
<rect y="457.536" width="600" height="84.33" fill="#60778C"/>
</svg>
