<svg width="600" height="622" viewBox="0 0 600 622" fill="none" xmlns="http://www.w3.org/2000/svg">
<path d="M0 5.99999C0 2.68628 2.68629 0 6 0H594C597.314 0 600 2.68629 600 6V615.726C600 619.04 597.314 621.726 594 621.726H5.99999C2.68629 621.726 0 619.04 0 615.726V5.99999Z" fill="#FFFF01"/>
<path d="M0 259H600V371C600 374.314 597.314 377 594 377H5.99999C2.68629 377 0 374.314 0 371V259Z" fill="#FC7500"/>
<path d="M0 174C0 170.686 2.68629 168 6 168H594C597.314 168 600 170.686 600 174V315H0V174Z" fill="#0348CA"/>
<path d="M0 526H600V621.332H0V526Z" fill="#569D01"/>
<path d="M0 416H600V526.33H0V416Z" fill="#FC7001"/>
<path d="M0 316H600V419.87H0V316Z" fill="#FCAFD1"/>
</svg>
