<svg width="600" height="600" viewBox="0 0 600 600" fill="none" xmlns="http://www.w3.org/2000/svg">
<path d="M0 5.99999C0 2.68629 2.68629 0 6 0H594C597.314 0 600 2.68629 600 6V594C600 597.314 597.314 600 594 600H5.99999C2.68629 600 0 597.314 0 594V5.99999Z" fill="#FFFF01"/>
<path d="M0 6C0 2.68629 2.68629 0 6 0H594C597.314 0 600 2.68629 600 6V350.195H0V6Z" fill="#5EA702"/>
<path d="M0 512.962H600V592.992C600 596.306 597.314 598.992 594 598.992H5.99999C2.68629 598.992 0 596.306 0 592.992V512.962Z" fill="#1A055A"/>
</svg>
