<svg width="600" height="600" viewBox="0 0 600 600" fill="none" xmlns="http://www.w3.org/2000/svg">
<path d="M0 5.99999C0 2.68629 2.68629 0 6 0H594C597.314 0 600 2.68629 600 6V594C600 597.314 597.314 600 594 600H5.99999C2.68629 600 0 597.314 0 594V5.99999Z" fill="#DC0000"/>
<path d="M0 5.99999C0 2.68628 2.68629 0 6 0H594C597.314 0 600 2.68629 600 6V267.033H0V5.99999Z" fill="black"/>
<path d="M0 255.495H600V440.703C600 444.017 597.314 446.703 594 446.703H5.99999C2.68629 446.703 0 444.017 0 440.703V255.495Z" fill="#646835"/>
</svg>
