<svg width="600" height="625" viewBox="0 0 600 625" fill="none" xmlns="http://www.w3.org/2000/svg">
<path d="M0 5.99999C0 2.68628 2.68629 0 6 0H594C597.314 0 600 2.68629 600 6V615.726C600 619.04 597.314 621.726 594 621.726H5.99999C2.68629 621.726 0 619.04 0 615.726V5.99999Z" fill="#0147C3"/>
<path d="M0 259H600V371C600 374.314 597.314 377 594 377H5.99999C2.68629 377 0 374.314 0 371V259Z" fill="#FC7500"/>
<path d="M0 216C0 212.686 2.68629 210 6 210H594C597.314 210 600 212.686 600 216V416H0V216Z" fill="#5EA702"/>
<path d="M0 509H600V624.33H0V509Z" fill="#FFFF01"/>
<path d="M0 416H600V509H0V416Z" fill="white"/>
</svg>
