<svg width="600" height="600" viewBox="0 0 600 600" fill="none" xmlns="http://www.w3.org/2000/svg">
<path d="M0 6.00001C0 2.6863 2.68629 0 6 0H594C597.314 0 600 2.68629 600 6V591.012C600 594.326 597.314 597.012 594 597.012H5.99999C2.68629 597.012 0 594.326 0 591.012V6.00001Z" fill="black"/>
<path d="M0 6C0 2.68629 2.68629 0 6 0H594C597.314 0 600 2.68629 600 6V250.776H0V6Z" fill="#DC0000"/>
<path d="M0 432.667H600V594C600 597.314 597.314 600 594 600H5.99999C2.68629 600 0 597.314 0 594V432.667Z" fill="#0348CA"/>
</svg>
